<?xml version="1.0" encoding="UTF-8"?>
<svg id="Layer_1" data-name="Layer 1" xmlns="http://www.w3.org/2000/svg" viewBox="0 0 32 32">
  <path d="M17,9h-7c-.553,0-1-.448-1-1s.447-1,1-1h7c.553,0,1,.448,1,1s-.447,1-1,1Z"/>
  <path d="M20,14H10c-.553,0-1-.448-1-1s.447-1,1-1h10c.553,0,1,.448,1,1s-.447,1-1,1Z"/>
  <path d="M15.86,18h-5.86c-.553,0-1-.448-1-1s.447-1,1-1h5.86c.553,0,1,.448,1,1s-.447,1-1,1Z"/>
  <path d="M13.46,22h-3.46c-.553,0-1-.448-1-1s.447-1,1-1h3.46c.553,0,1,.448,1,1s-.447,1-1,1Z"/>
  <path d="M13.46,28h-4.46c-2.757,0-5-2.243-5-5V6c0-2.757,2.243-5,5-5h12c2.757,0,5,2.243,5,5V14.2c0,.552-.447,1-1,1s-1-.448-1-1V6c0-1.654-1.346-3-3-3H9c-1.654,0-3,1.346-3,3V23c0,1.654,1.346,3,3,3h4.46c.553,0,1,.448,1,1s-.447,1-1,1Z"/>
  <path d="M23,31c-3.859,0-7-3.14-7-7s3.141-7,7-7,7,3.14,7,7-3.141,7-7,7Zm0-12c-2.757,0-5,2.243-5,5s2.243,5,5,5,5-2.243,5-5-2.243-5-5-5Z"/>
  <path d="M22.333,26.533c-.256,0-.512-.098-.707-.293l-1.333-1.333c-.391-.391-.391-1.023,0-1.414s1.023-.391,1.414,0l.626,.626,1.96-1.959c.391-.391,1.023-.391,1.414,0s.391,1.024,0,1.414l-2.667,2.667c-.195,.195-.451,.293-.707,.293Z"/>
</svg>