<?xml version="1.0" encoding="UTF-8" standalone="no"?> <svg id="Glyph" xmlns="http://www.w3.org/2000/svg" viewBox="0 0 64 64"><title>1</title><path d="M59.12,54.88,43.3,39.06a21.75877,21.75877,0,0,0-1.97-28.65c-8.13191-8.48852-22.7938-8.49648-30.93.00024A21.86815,21.86815,0,0,0,39.06,43.30982L54.87,59.12A2.97864,2.97864,0,0,0,57,60,3.0203,3.0203,0,0,0,59.12,54.88ZM38.5,38.5C27.331,49.72031,7.97409,41.7021,8.00009,25.8698a17.94065,17.94065,0,0,1,17.86-17.86965C41.69428,7.96408,49.68864,27.33069,38.5,38.5Z"/><path d="M37.08,14.65c-9.90832-9.959-27.11366-2.8435-27.07994,11.2202a15.93384,15.93384,0,0,0,15.86,15.8697C39.917,41.774,47.02661,24.5544,37.08,14.65Zm-1.41,2.83a1.00454,1.00454,0,0,1-1.41,0A11.79225,11.79225,0,0,0,25.86,14a1.00012,1.00012,0,0,1,0-2,13.77276,13.77276,0,0,1,9.81,4.06A1.0079,1.0079,0,0,1,35.67,17.48Z"/></svg>