<?xml version="1.0" encoding="UTF-8" standalone="no"?> <svg width="64" height="64" viewBox="0 0 64 64" fill="none" xmlns="http://www.w3.org/2000/svg">
<path d="M61.4101 58.5901L41.3601 38.5301C45.0389 34.1227 46.8762 28.4664 46.4896 22.7385C46.103 17.0106 43.5222 11.6524 39.2845 7.77941C35.0469 3.90638 29.4788 1.81686 23.7393 1.94582C17.9998 2.07477 12.5312 4.41226 8.47171 8.47171C4.41226 12.5312 2.07477 17.9998 1.94582 23.7393C1.81686 29.4788 3.90638 35.0469 7.77941 39.2845C11.6524 43.5222 17.0106 46.103 22.7385 46.4896C28.4664 46.8762 34.1227 45.0389 38.5301 41.3601L58.5901 61.4101C58.9653 61.7853 59.4743 61.9962 60.0051 61.9962C60.5358 61.9962 61.0448 61.7853 61.4201 61.4101C61.7953 61.0348 62.0062 60.5258 62.0062 59.9951C62.0062 59.4643 61.7953 58.9553 61.4201 58.5801L61.4101 58.5901ZM37.0001 26.2701C36.4696 26.2701 35.9609 26.0593 35.5858 25.6843C35.2108 25.3092 35.0001 24.8005 35.0001 24.2701C34.9974 21.4331 33.8692 18.713 31.8632 16.7069C29.8571 14.7009 27.1371 13.5727 24.3001 13.5701C23.7696 13.5701 23.2609 13.3593 22.8858 12.9843C22.5108 12.6092 22.3001 12.1005 22.3001 11.5701C22.3001 11.0396 22.5108 10.5309 22.8858 10.1558C23.2609 9.78077 23.7696 9.57006 24.3001 9.57006C28.1979 9.5727 31.9354 11.1223 34.6916 13.8785C37.4478 16.6347 38.9974 20.3722 39.0001 24.2701C39.0001 24.8005 38.7893 25.3092 38.4143 25.6843C38.0392 26.0593 37.5305 26.2701 37.0001 26.2701Z" fill="black"/>
</svg>
